<?xml version="1.0" encoding="UTF-8" standalone="no"?>
<!-- Created with Inkscape (http://www.inkscape.org/) -->

<svg
   xmlns:dc="http://purl.org/dc/elements/1.1/"
   xmlns:cc="http://creativecommons.org/ns#"
   xmlns:rdf="http://www.w3.org/1999/02/22-rdf-syntax-ns#"
   xmlns:svg="http://www.w3.org/2000/svg"
   xmlns="http://www.w3.org/2000/svg"
   xmlns:sodipodi="http://sodipodi.sourceforge.net/DTD/sodipodi-0.dtd"
   xmlns:inkscape="http://www.inkscape.org/namespaces/inkscape"
   width="210mm"
   height="297mm"
   viewBox="0 0 210 297"
   version="1.1"
   id="svg8"
   inkscape:version="0.92.3 (2405546, 2018-03-11)"
   sodipodi:docname="BasicShapeLineSegementAndArcWithDerivativeGujaratiScriptCharactersCollection.svg">
  <defs
     id="defs2" />
  <sodipodi:namedview
     id="base"
     pagecolor="#ffffff"
     bordercolor="#666666"
     borderopacity="1.0"
     inkscape:pageopacity="0.0"
     inkscape:pageshadow="2"
     inkscape:zoom="0.81139696"
     inkscape:cx="255.85386"
     inkscape:cy="755.23924"
     inkscape:document-units="mm"
     inkscape:current-layer="layer1"
     showgrid="false"
     inkscape:window-width="1920"
     inkscape:window-height="1009"
     inkscape:window-x="0"
     inkscape:window-y="0"
     inkscape:window-maximized="1" />
  <metadata
     id="metadata5">
    <rdf:RDF>
      <cc:Work
         rdf:about="">
        <dc:format>image/svg+xml</dc:format>
        <dc:type
           rdf:resource="http://purl.org/dc/dcmitype/StillImage" />
        <dc:title></dc:title>
      </cc:Work>
    </rdf:RDF>
  </metadata>
  <g
     inkscape:label="Layer 1"
     inkscape:groupmode="layer"
     id="layer1">
    <path
       id="path3723"
       style="fill:none;fill-opacity:1;stroke:#000000;stroke-width:0.26458332;stroke-opacity:1"
       sodipodi:type="arc"
       sodipodi:cx="23.268564"
       sodipodi:cy="51.204475"
       sodipodi:rx="10.824416"
       sodipodi:ry="10.824416"
       sodipodi:start="0"
       sodipodi:end="3.1532742"
       d="m 34.09298,51.204475 a 10.824416,10.824416 0 0 1 -5.44875,9.395223 10.824416,10.824416 0 0 1 -10.860713,-0.06344 10.824416,10.824416 0 0 1 -5.33863,-9.45823"
       sodipodi:open="true" />
    <path
       style="fill:none;stroke:#000000;stroke-width:0.26458332px;stroke-linecap:butt;stroke-linejoin:miter;stroke-opacity:1"
       d="M 39.591539,51.347542 H 63.11029"
       id="path4540"
       inkscape:connector-curvature="0" />
    <path
       id="path3723-3"
       style="fill:none;fill-opacity:1;stroke:#000000;stroke-width:0.26458332;stroke-opacity:1"
       sodipodi:type="arc"
       sodipodi:cx="125.29934"
       sodipodi:cy="-22.285564"
       sodipodi:rx="10.824416"
       sodipodi:ry="10.824416"
       sodipodi:start="0"
       sodipodi:end="3.1532742"
       d="m 136.12376,-22.285564 a 10.824416,10.824416 0 0 1 -5.44876,9.395222 10.824416,10.824416 0 0 1 -10.86071,-0.06344 10.824416,10.824416 0 0 1 -5.33863,-9.458229"
       sodipodi:open="true"
       transform="rotate(90)" />
    <path
       id="path3723-3-6"
       style="fill:none;fill-opacity:1;stroke:#000000;stroke-width:0.26458332;stroke-opacity:1"
       sodipodi:type="arc"
       sodipodi:cx="-146.88341"
       sodipodi:cy="22.404655"
       sodipodi:rx="10.824416"
       sodipodi:ry="10.824416"
       sodipodi:start="0"
       sodipodi:end="3.1532742"
       d="m -136.05899,22.404655 a 10.824416,10.824416 0 0 1 -5.44875,9.395223 10.824416,10.824416 0 0 1 -10.86071,-0.06344 10.824416,10.824416 0 0 1 -5.33864,-9.45823"
       sodipodi:open="true"
       transform="rotate(-90)" />
    <path
       style="fill:none;stroke:#000000;stroke-width:0.26458332px;stroke-linecap:butt;stroke-linejoin:miter;stroke-opacity:1"
       d="M 9.840788,136.11157 H 33.359536"
       id="path4540-7"
       inkscape:connector-curvature="0" />
    <path
       style="fill:none;stroke:#000000;stroke-width:0.26458332px;stroke-linecap:butt;stroke-linejoin:miter;stroke-opacity:1"
       d="M 89.040534,145.69716 H 112.55929"
       id="path4540-5"
       inkscape:connector-curvature="0" />
    <path
       style="fill:none;stroke:#000000;stroke-width:0.26458332px;stroke-linecap:butt;stroke-linejoin:miter;stroke-opacity:1"
       d="m 112.66193,134.10082 v 23.51875"
       id="path4540-3"
       inkscape:connector-curvature="0" />
    <path
       id="path3723-5"
       style="fill:none;fill-opacity:1;stroke:#000000;stroke-width:0.26458332;stroke-opacity:1"
       sodipodi:type="arc"
       sodipodi:cx="78.260086"
       sodipodi:cy="145.66322"
       sodipodi:rx="10.824416"
       sodipodi:ry="10.824416"
       sodipodi:start="0"
       sodipodi:end="3.1532742"
       d="m 89.084502,145.66322 a 10.824416,10.824416 0 0 1 -5.448751,9.39523 10.824416,10.824416 0 0 1 -10.860712,-0.0634 10.824416,10.824416 0 0 1 -5.338631,-9.45823"
       sodipodi:open="true" />
    <path
       style="fill:none;stroke:#000000;stroke-width:0.26458332px;stroke-linecap:butt;stroke-linejoin:miter;stroke-opacity:1"
       d="m 67.436411,122.01803 v 23.51875"
       id="path4540-3-6"
       inkscape:connector-curvature="0" />
    <path
       id="path3723-2"
       style="fill:none;fill-opacity:1;stroke:#000000;stroke-width:0.26458332;stroke-opacity:1"
       sodipodi:type="arc"
       sodipodi:cx="-56.612736"
       sodipodi:cy="-121.89159"
       sodipodi:rx="10.824416"
       sodipodi:ry="10.824416"
       sodipodi:start="0"
       sodipodi:end="3.1532742"
       d="m -45.78832,-121.89159 a 10.824416,10.824416 0 0 1 -5.44875,9.39523 10.824416,10.824416 0 0 1 -10.860713,-0.0634 10.824416,10.824416 0 0 1 -5.33863,-9.45823"
       sodipodi:open="true"
       transform="scale(-1)" />
    <path
       id="path3723-9"
       style="fill:none;fill-opacity:1;stroke:#000000;stroke-width:0.26458332;stroke-opacity:1"
       sodipodi:type="arc"
       sodipodi:cx="-133.89281"
       sodipodi:cy="130.46487"
       sodipodi:rx="10.824416"
       sodipodi:ry="10.824416"
       sodipodi:start="0"
       sodipodi:end="3.1532742"
       d="m -123.06839,130.46487 a 10.824416,10.824416 0 0 1 -5.44875,9.39523 10.824416,10.824416 0 0 1 -10.86071,-0.0634 10.824416,10.824416 0 0 1 -5.33863,-9.45823"
       sodipodi:open="true"
       transform="rotate(-90)" />
    <path
       style="fill:none;stroke:#000000;stroke-width:0.26458332px;stroke-linecap:butt;stroke-linejoin:miter;stroke-opacity:1"
       d="m 147.22679,122.19877 v 23.51875"
       id="path4540-1"
       inkscape:connector-curvature="0" />
    <path
       id="path3723-27"
       style="fill:none;fill-opacity:1;stroke:#000000;stroke-width:0.26458332;stroke-opacity:1"
       sodipodi:type="arc"
       sodipodi:cx="120.09959"
       sodipodi:cy="-170.90181"
       sodipodi:rx="10.824416"
       sodipodi:ry="10.824416"
       sodipodi:start="0"
       sodipodi:end="3.1532742"
       d="m 130.924,-170.90181 a 10.824416,10.824416 0 0 1 -5.44875,9.39522 10.824416,10.824416 0 0 1 -10.86071,-0.0634 10.824416,10.824416 0 0 1 -5.33863,-9.45823"
       sodipodi:open="true"
       transform="rotate(90)" />
    <path
       id="path3723-27-0"
       style="fill:none;fill-opacity:1;stroke:#000000;stroke-width:0.26458332;stroke-opacity:1"
       sodipodi:type="arc"
       sodipodi:cx="141.7561"
       sodipodi:cy="-170.27116"
       sodipodi:rx="10.824416"
       sodipodi:ry="10.824416"
       sodipodi:start="0"
       sodipodi:end="3.1532742"
       d="m 152.58052,-170.27116 a 10.824416,10.824416 0 0 1 -5.44875,9.39522 10.824416,10.824416 0 0 1 -10.86071,-0.0634 10.824416,10.824416 0 0 1 -5.33863,-9.45823"
       sodipodi:open="true"
       transform="rotate(90)" />
    <path
       style="fill:none;stroke:#000000;stroke-width:0.26458332px;stroke-linecap:butt;stroke-linejoin:miter;stroke-opacity:1"
       d="m 170.22388,152.54491 h 23.51875"
       id="path4540-9"
       inkscape:connector-curvature="0" />
    <path
       style="fill:none;stroke:#000000;stroke-width:0.26458332px;stroke-linecap:butt;stroke-linejoin:miter;stroke-opacity:1"
       d="m 193.85677,133.77474 v 23.51875"
       id="path4540-36"
       inkscape:connector-curvature="0" />
    <path
       style="fill:none;stroke:#000000;stroke-width:0.26458332px;stroke-linecap:butt;stroke-linejoin:miter;stroke-opacity:1"
       d="m 193.85677,110.25599 v 23.51875"
       id="path4540-36-0"
       inkscape:connector-curvature="0" />
    <flowRoot
       xml:space="preserve"
       id="flowRoot4782"
       style="font-style:normal;font-weight:normal;font-size:40px;line-height:1.25;font-family:sans-serif;letter-spacing:0px;word-spacing:0px;fill:#000000;fill-opacity:1;stroke:none"
       transform="matrix(0.26458333,0,0,0.26458333,6.1955906,8.1520928)"><flowRegion
         id="flowRegion4784"><rect
           id="rect4786"
           width="248.95335"
           height="61.62212"
           x="19.719078"
           y="47.829929" /></flowRegion><flowPara
         id="flowPara4788">Basic Shapes</flowPara></flowRoot>    <flowRoot
       xml:space="preserve"
       id="flowRoot4790"
       style="font-style:normal;font-weight:normal;font-size:40px;line-height:1.25;font-family:sans-serif;letter-spacing:0px;word-spacing:0px;fill:#000000;fill-opacity:1;stroke:none"
       transform="matrix(0.26458333,0,0,0.26458333,0.65216743,0.97825114)"><flowRegion
         id="flowRegion4792"><rect
           id="rect4794"
           width="310.57547"
           height="61.62212"
           x="36.97327"
           y="284.45886" /></flowRegion><flowPara
         id="flowPara4796">Derivatives</flowPara></flowRoot>  </g>
</svg>
